<?xml version="1.0" encoding="UTF-8" standalone="no"?>
<svg
   xmlns:dc="http://purl.org/dc/elements/1.1/"
   xmlns:cc="http://creativecommons.org/ns#"
   xmlns:rdf="http://www.w3.org/1999/02/22-rdf-syntax-ns#"
   xmlns:svg="http://www.w3.org/2000/svg"
   xmlns="http://www.w3.org/2000/svg"
   xmlns:sodipodi="http://sodipodi.sourceforge.net/DTD/sodipodi-0.dtd"
   xmlns:inkscape="http://www.inkscape.org/namespaces/inkscape"
   fill="none"
   viewBox="0 0 44.521739 56.533188"
   width="64"
   version="1.1"
   id="svg882"
   sodipodi:docname="bsky-icon.svg"
   height="56.533188"
   inkscape:version="1.0.2 (e86c8708, 2021-01-15)">
  <metadata
     id="metadata886">
    <rdf:RDF>
      <cc:Work
         rdf:about="">
        <dc:format>image/svg+xml</dc:format>
        <dc:type
           rdf:resource="http://purl.org/dc/dcmitype/StillImage" />
        <dc:title></dc:title>
      </cc:Work>
    </rdf:RDF>
  </metadata>
  <sodipodi:namedview
     pagecolor="#ffffff"
     bordercolor="#666666"
     borderopacity="1"
     objecttolerance="10"
     gridtolerance="10"
     guidetolerance="10"
     inkscape:pageopacity="0"
     inkscape:pageshadow="2"
     inkscape:window-width="1636"
     inkscape:window-height="1018"
     id="namedview884"
     showgrid="false"
     fit-margin-top="0"
     fit-margin-left="0"
     fit-margin-right="0"
     fit-margin-bottom="0"
     inkscape:zoom="12.71875"
     inkscape:cx="32"
     inkscape:cy="28.266593"
     inkscape:window-x="206"
     inkscape:window-y="34"
     inkscape:window-maximized="0"
     inkscape:current-layer="svg882" />
  <defs
     id="defs878">
    <linearGradient
       x1="0"
       y1="0"
       x2="0"
       y2="1"
       id="sky">
      <stop
         offset="0"
         stop-color="#0A7AFF"
         stop-opacity="1"
         id="stop873" />
      <stop
         offset="1"
         stop-color="#59B9FF"
         stop-opacity="1"
         id="stop875" />
    </linearGradient>
  </defs>
  <path
     fill="url(#sky)"
     d="m 4.1338695,3.8051624 c 7.3369995,5.527 15.2299995,16.7320006 18.1269995,22.7450006 v 15.882 c 0,-0.338 -0.13,0.044 -0.41,0.867 -1.512,4.456 -7.418,21.847 -20.9229995,7.944 -7.111,-7.32 -3.819,-14.64 9.1249995,-16.85 -7.4049995,1.264 -15.7299995,-0.825 -18.0139995,-9.015 -0.658,-2.356 -1.778,-16.8680006 -1.778,-18.8280006 0,-9.818 8.579,-6.73200001 13.873,-2.745 z m 36.2539995,0 c -7.337,5.527 -15.23,16.7320006 -18.127,22.7450006 v 15.882 c 0,-0.338 0.13,0.044 0.41,0.867 1.512,4.456 7.418,21.847 20.923,7.944 7.111,-7.32 3.819,-14.64 -9.125,-16.85 7.405,1.264 15.73,-0.825 18.014,-9.015 0.658,-2.356 1.778,-16.8680006 1.778,-18.8280006 0,-9.818 -8.578,-6.73200001 -13.873,-2.745 z"
     id="path880"
     style="fill:#ffffff" />
</svg>
