<?xml version="1.0" encoding="UTF-8" standalone="no"?>
<svg
   xmlns:dc="http://purl.org/dc/elements/1.1/"
   xmlns:cc="http://creativecommons.org/ns#"
   xmlns:rdf="http://www.w3.org/1999/02/22-rdf-syntax-ns#"
   xmlns:svg="http://www.w3.org/2000/svg"
   xmlns="http://www.w3.org/2000/svg"
   xmlns:sodipodi="http://sodipodi.sourceforge.net/DTD/sodipodi-0.dtd"
   xmlns:inkscape="http://www.inkscape.org/namespaces/inkscape"
   width="33.866665mm"
   height="32.520969mm"
   viewBox="0 0 33.866665 32.52097"
   version="1.1"
   id="svg8"
   inkscape:version="1.0.2 (e86c8708, 2021-01-15)"
   sodipodi:docname="icon.svg">
  <defs
     id="defs2" />
  <sodipodi:namedview
     id="base"
     pagecolor="#ffffff"
     bordercolor="#666666"
     borderopacity="1.0"
     inkscape:pageopacity="0.0"
     inkscape:pageshadow="2"
     inkscape:zoom="2.6848739"
     inkscape:cx="51.35839"
     inkscape:cy="60.458105"
     inkscape:document-units="mm"
     inkscape:current-layer="layer1"
     inkscape:document-rotation="0"
     showgrid="false"
     inkscape:window-width="1440"
     inkscape:window-height="847"
     inkscape:window-x="0"
     inkscape:window-y="25"
     inkscape:window-maximized="0"
     fit-margin-top="0"
     fit-margin-left="0"
     fit-margin-right="0"
     fit-margin-bottom="0" />
  <metadata
     id="metadata5">
    <rdf:RDF>
      <cc:Work
         rdf:about="">
        <dc:format>image/svg+xml</dc:format>
        <dc:type
           rdf:resource="http://purl.org/dc/dcmitype/StillImage" />
        <dc:title></dc:title>
      </cc:Work>
    </rdf:RDF>
  </metadata>
  <g
     inkscape:label="Layer 1"
     inkscape:groupmode="layer"
     id="layer1"
     transform="translate(63.755661,-59.841633)">
    <path
       id="rect1006"
       style="fill:#00aad4;fill-opacity:1;stroke-width:0.112141"
       d="m -60.391423,59.841633 h 27.138189 c 1.863788,0 3.364238,1.50045 3.364238,3.364238 v 25.792493 c 0,1.863788 -1.50045,3.364238 -3.364238,3.364238 h -27.138189 c -1.863788,0 -3.364238,-1.50045 -3.364238,-3.364238 V 63.205871 c 0,-1.863788 1.50045,-3.364238 3.364238,-3.364238 z" />
    <path
       style="fill:#000000;stroke-width:0.276679"
       d="m -38.096437,86.124535 c -1.451954,-0.911746 -2.216995,-3.815416 -1.50126,-5.697945 0.463103,-1.218052 1.066329,-0.893717 0.91042,0.4895 -0.25312,2.245661 1.138083,3.766411 2.5808,2.821104 2.0532,-1.345311 1.457756,-5.064686 -1.153352,-7.204296 -1.803221,-1.477608 -2.433093,-2.862398 -2.45302,-5.393036 -0.01294,-1.642277 0.119412,-2.350765 0.634521,-3.396843 1.028928,-2.089549 2.479206,-2.597804 4.488194,-1.57289 0.60785,0.310101 1.239022,0.481096 1.402604,0.380006 0.205783,-0.127182 0.235885,0.189266 0.09769,1.02707 -0.306002,1.855216 -0.478993,2.025353 -1.237901,1.217535 -1.347647,-1.43451 -2.781155,-0.508904 -2.763207,1.784166 0.01206,1.540022 0.285112,2.013473 2.160641,3.746292 2.159908,1.995565 2.648024,3.086633 2.659669,5.945049 0.008,1.96944 -0.102685,2.574319 -0.681029,3.720772 -0.379834,0.75295 -1.012652,1.60248 -1.406261,1.887842 -1.082082,0.784487 -2.710088,0.891462 -3.738515,0.245674 z m -21.822469,-2.879998 c -0.371673,-6.055709 -1.224856,-16.136691 -1.405545,-16.607557 -0.159394,-0.415371 0.0091,-0.477301 1.298996,-0.47718 l 1.482162,1.43e-4 0.09983,3.527502 c 0.0549,1.940135 0.181926,4.710309 0.282273,6.155951 l 0.182447,2.628439 0.528922,-6.156084 0.528922,-6.156083 h 1.039428 c 1.015709,0 1.042732,0.02684 1.184134,1.175878 0.07959,0.646734 0.287591,3.416973 0.462232,6.156083 0.17464,2.739121 0.346973,5.012898 0.382961,5.05285 0.09276,0.10296 0.741864,-8.577436 0.796748,-10.654852 l 0.04567,-1.728507 1.192211,-7.04e-4 c 0.655716,-3.74e-4 1.122207,0.112541 1.036647,0.250976 -0.212363,0.343618 -1.768698,13.366121 -2.023256,16.929428 l -0.205602,2.878018 -1.149095,0.08371 c -1.137952,0.08294 -1.150601,0.07359 -1.304231,-0.968374 -0.08533,-0.578677 -0.238024,-2.79521 -0.339333,-4.925635 -0.10131,-2.130414 -0.271455,-4.11103 -0.378103,-4.401353 -0.109087,-0.296989 -0.404366,1.578731 -0.675091,4.288504 -0.649009,6.496182 -0.519828,6.061429 -1.801078,6.061429 h -1.071201 z m 11.201772,1.10671 c 0.0059,-2.911887 0.642385,-5.204672 2.400078,-8.646187 1.805178,-3.534509 2.106571,-4.584602 1.725827,-6.013039 -0.304242,-1.141437 -1.083954,-1.721533 -1.946111,-1.447897 -0.632325,0.200695 -1.627918,1.674123 -1.629494,2.411562 -5.55e-4,0.266299 -0.125539,0.484187 -0.277712,0.484187 -0.406504,0 -0.336936,-2.086985 0.104808,-3.144228 0.483998,-1.158377 1.686408,-2.11266 2.661969,-2.11266 1.552218,0 3.071727,1.962906 3.426886,4.42685 0.252255,1.750045 -0.403264,3.997466 -2.021582,6.930891 -1.49525,2.710356 -1.83617,3.615722 -2.119533,5.628755 l -0.190622,1.354188 1.766646,-0.19921 c 1.013314,-0.114257 1.98465,-0.395989 2.277888,-0.660682 0.492393,-0.444477 0.504382,-0.410553 0.325194,0.920106 -0.102322,0.759869 -0.235099,1.537217 -0.29505,1.727429 -0.07854,0.249194 -0.962016,0.345851 -3.161144,0.345851 h -3.052138 z"
       id="path1004" />
  </g>
</svg>
