<?xml version="1.0" encoding="UTF-8" standalone="no"?>
<svg
   xmlns:dc="http://purl.org/dc/elements/1.1/"
   xmlns:cc="http://creativecommons.org/ns#"
   xmlns:rdf="http://www.w3.org/1999/02/22-rdf-syntax-ns#"
   xmlns:svg="http://www.w3.org/2000/svg"
   xmlns="http://www.w3.org/2000/svg"
   xmlns:sodipodi="http://sodipodi.sourceforge.net/DTD/sodipodi-0.dtd"
   xmlns:inkscape="http://www.inkscape.org/namespaces/inkscape"
   width="33.866665mm"
   height="33.866669mm"
   viewBox="0 0 33.866665 33.866669"
   version="1.1"
   id="svg8"
   inkscape:version="1.0.2 (e86c8708, 2021-01-15)"
   sodipodi:docname="icon.svg"
   inkscape:export-filename="/Users/florent/Documents/GitHub/wp-to-social/w2s-ff/icons/icon-32.png"
   inkscape:export-xdpi="24"
   inkscape:export-ydpi="24">
  <defs
     id="defs2" />
  <sodipodi:namedview
     id="base"
     pagecolor="#ffffff"
     bordercolor="#666666"
     borderopacity="1.0"
     inkscape:pageopacity="0.0"
     inkscape:pageshadow="2"
     inkscape:zoom="2.6848739"
     inkscape:cx="51.35839"
     inkscape:cy="60.458105"
     inkscape:document-units="mm"
     inkscape:current-layer="layer1"
     inkscape:document-rotation="0"
     showgrid="false"
     inkscape:window-width="1821"
     inkscape:window-height="847"
     inkscape:window-x="0"
     inkscape:window-y="25"
     inkscape:window-maximized="0"
     fit-margin-top="0"
     fit-margin-left="0"
     fit-margin-right="0"
     fit-margin-bottom="0" />
  <metadata
     id="metadata5">
    <rdf:RDF>
      <cc:Work
         rdf:about="">
        <dc:format>image/svg+xml</dc:format>
        <dc:type
           rdf:resource="http://purl.org/dc/dcmitype/StillImage" />
        <dc:title></dc:title>
      </cc:Work>
    </rdf:RDF>
  </metadata>
  <g
     inkscape:label="Layer 1"
     inkscape:groupmode="layer"
     id="layer1"
     transform="translate(63.755661,-59.841633)">
    <path
       id="rect1006"
       style="fill:#cee0fd;fill-opacity:1;stroke-width:0.114438"
       d="m -60.391423,59.841633 h 27.138189 c 1.863788,0 3.364238,1.562538 3.364238,3.503448 v 26.859771 c 0,1.94091 -1.50045,3.503448 -3.364238,3.503448 h -27.138189 c -1.863788,0 -3.364238,-1.562538 -3.364238,-3.503448 V 63.345081 c 0,-1.94091 1.50045,-3.503448 3.364238,-3.503448 z"
       inkscape:export-xdpi="96"
       inkscape:export-ydpi="96" />
    <path
       style="fill:#000000;stroke-width:0.227964"
       d="m -39.63281,85.032731 c -1.196307,-0.751214 -1.826647,-3.143633 -1.236932,-4.694704 0.381564,-1.003589 0.87858,-0.73636 0.750122,0.403313 -0.208553,1.850266 0.9377,3.103257 2.126397,2.324391 1.691692,-1.108442 1.201088,-4.172944 -0.950281,-5.935832 -1.485727,-1.217444 -2.004697,-2.358414 -2.021115,-4.443481 -0.01066,-1.35312 0.09839,-1.936864 0.5228,-2.798759 0.847764,-1.721641 2.042691,-2.140407 3.697955,-1.29595 0.500826,0.255501 1.020867,0.396389 1.155647,0.313098 0.169551,-0.104789 0.194353,0.155942 0.08049,0.846233 -0.252124,1.528567 -0.394657,1.668748 -1.019943,1.003163 -1.110366,-1.181935 -2.291476,-0.419301 -2.276688,1.470027 0.0099,1.26887 0.234912,1.65896 1.780216,3.08668 1.779612,1.644205 2.181785,2.543168 2.191379,4.898301 0.0066,1.62268 -0.08461,2.121057 -0.561119,3.065654 -0.312957,0.620377 -0.834354,1.32033 -1.15866,1.555448 -0.891559,0.646362 -2.232921,0.734502 -3.080273,0.202418 z m -17.980174,-2.372915 c -0.306232,-4.989477 -1.009195,-13.295494 -1.15807,-13.683455 -0.131329,-0.342236 0.0075,-0.393262 1.070281,-0.393162 l 1.221197,1.17e-4 0.08225,2.906413 c 0.04523,1.598534 0.149894,3.880962 0.232573,5.072069 l 0.150323,2.165649 0.435795,-5.072179 0.435794,-5.072178 h 0.856415 c 0.836873,0 0.859138,0.02211 0.975643,0.96884 0.06558,0.532864 0.236955,2.815345 0.380847,5.072178 0.143891,2.256843 0.285881,4.130274 0.315533,4.163192 0.07643,0.08483 0.611243,-7.067202 0.656464,-8.778846 l 0.03763,-1.424168 0.982297,-5.8e-4 c 0.540264,-3.08e-4 0.92462,0.09273 0.854124,0.206787 -0.174972,0.283117 -1.457282,11.01274 -1.66702,13.948654 l -0.169401,2.371283 -0.946774,0.06897 c -0.937592,0.06834 -0.948014,0.06063 -1.074594,-0.797871 -0.07031,-0.476789 -0.196115,-2.303056 -0.279586,-4.058376 -0.08347,-1.755311 -0.22366,-3.387199 -0.311531,-3.626404 -0.08988,-0.244698 -0.333169,1.300763 -0.556227,3.533424 -0.534737,5.352396 -0.428301,4.99419 -1.483961,4.99419 h -0.882594 z m 9.229469,0.911851 c 0.0049,-2.399189 0.52928,-4.288282 1.977495,-7.123848 1.48734,-2.912186 1.735666,-3.777388 1.42196,-4.95432 -0.250674,-0.940463 -0.893102,-1.418421 -1.603458,-1.192965 -0.520991,0.165359 -1.34129,1.37936 -1.342588,1.986957 -4.57e-4,0.219412 -0.103435,0.398936 -0.228815,0.398936 -0.334931,0 -0.277612,-1.719528 0.08635,-2.590622 0.39878,-0.954421 1.389481,-1.740682 2.193275,-1.740682 1.278918,0 2.530886,1.617296 2.823512,3.647412 0.20784,1.441913 -0.332261,3.293629 -1.665641,5.710565 -1.23198,2.233142 -1.512874,2.979099 -1.746346,4.637696 l -0.157059,1.115756 1.455592,-0.164135 c 0.834899,-0.09414 1.635211,-0.326267 1.876819,-0.544355 0.405697,-0.366218 0.415575,-0.338267 0.267937,0.758102 -0.08431,0.626078 -0.193705,1.266558 -0.243101,1.423279 -0.06471,0.205319 -0.792633,0.284957 -2.604559,0.284957 h -2.514746 z"
       id="path1004" />
  </g>
</svg>
