<?xml version="1.0" encoding="UTF-8" standalone="no"?>
<svg
   xmlns:dc="http://purl.org/dc/elements/1.1/"
   xmlns:cc="http://creativecommons.org/ns#"
   xmlns:rdf="http://www.w3.org/1999/02/22-rdf-syntax-ns#"
   xmlns:svg="http://www.w3.org/2000/svg"
   xmlns="http://www.w3.org/2000/svg"
   xmlns:sodipodi="http://sodipodi.sourceforge.net/DTD/sodipodi-0.dtd"
   xmlns:inkscape="http://www.inkscape.org/namespaces/inkscape"
   width="5.4910145mm"
   height="6.3498902mm"
   viewBox="0 0 5.4910145 6.3498903"
   version="1.1"
   id="svg8"
   inkscape:version="1.0.2 (e86c8708, 2021-01-15)"
   sodipodi:docname="Threads icon.svg">
  <defs
     id="defs2" />
  <sodipodi:namedview
     id="base"
     pagecolor="#ffffff"
     bordercolor="#666666"
     borderopacity="1.0"
     inkscape:pageopacity="0.0"
     inkscape:pageshadow="2"
     inkscape:zoom="13.680309"
     inkscape:cx="5.3475011"
     inkscape:cy="19.247796"
     inkscape:document-units="mm"
     inkscape:current-layer="layer1"
     inkscape:document-rotation="0"
     showgrid="false"
     inkscape:window-width="1252"
     inkscape:window-height="847"
     inkscape:window-x="0"
     inkscape:window-y="25"
     inkscape:window-maximized="0"
     fit-margin-top="0"
     fit-margin-left="0"
     fit-margin-right="0"
     fit-margin-bottom="0" />
  <metadata
     id="metadata5">
    <rdf:RDF>
      <cc:Work
         rdf:about="">
        <dc:format>image/svg+xml</dc:format>
        <dc:type
           rdf:resource="http://purl.org/dc/dcmitype/StillImage" />
        <dc:title></dc:title>
      </cc:Work>
    </rdf:RDF>
  </metadata>
  <g
     inkscape:label="Layer 1"
     inkscape:groupmode="layer"
     id="layer1"
     transform="translate(-54.607913,-113.14409)">
    <path
       id="rect931"
       style="fill:#ffffff;stroke-width:0.344133"
       d="m 57.260569,113.14656 c -0.180985,0.007 -0.360802,0.0271 -0.533676,0.0618 -1.246198,0.25082 -1.986545,1.21161 -2.103112,2.72821 -0.08367,1.0887 0.165703,2.05054 0.697006,2.68787 0.129207,0.155 0.217509,0.23809 0.386477,0.36429 0.369322,0.27581 0.787682,0.42584 1.39737,0.50007 0.122835,0.015 0.702575,-0.005 0.842858,-0.0289 0.549868,-0.0935 0.955771,-0.28591 1.306632,-0.61971 0.525076,-0.49955 0.714156,-1.17177 0.506119,-1.79864 -0.03085,-0.093 -0.08904,-0.22349 -0.133082,-0.29776 -0.145728,-0.24581 -0.414879,-0.49351 -0.687595,-0.63315 l -0.129728,-0.0666 -0.01748,-0.13846 c -0.08255,-0.66931 -0.40688,-1.08383 -0.968548,-1.23673 -0.112715,-0.0307 -0.163308,-0.0351 -0.404625,-0.0343 -0.329572,10e-4 -0.434886,0.0235 -0.678185,0.14519 -0.16531,0.0827 -0.318048,0.20817 -0.436216,0.35757 -0.04838,0.0611 -0.05591,0.078 -0.03966,0.0934 0.01105,0.0104 0.112273,0.0819 0.225165,0.15862 l 0.205001,0.13914 0.09544,-0.0968 c 0.10711,-0.10978 0.267052,-0.19912 0.403953,-0.2245 0.124226,-0.023 0.380782,-0.0185 0.483939,0.008 0.202679,0.0528 0.36061,0.17715 0.450331,0.35488 0.04426,0.0877 0.103194,0.27724 0.09007,0.29036 -0.0035,0.004 -0.134088,-0.003 -0.28969,-0.0117 -0.636262,-0.0418 -1.08593,0.0611 -1.395355,0.31792 -0.372261,0.30907 -0.467746,0.81446 -0.236591,1.25555 0.07217,0.13772 0.264922,0.32253 0.416724,0.40059 0.539421,0.27743 1.203858,0.20719 1.61447,-0.17072 0.209322,-0.19266 0.370646,-0.51509 0.431511,-0.86235 0.01067,-0.0611 0.02476,-0.11095 0.03092,-0.11095 0.02566,0 0.196438,0.13869 0.256756,0.20835 0.08776,0.10132 0.182201,0.29541 0.211722,0.43556 0.02871,0.13627 0.02084,0.37106 -0.0168,0.51283 -0.120337,0.45322 -0.557359,0.8514 -1.102974,1.00484 -0.458002,0.12877 -1.128721,0.11212 -1.580864,-0.0397 -0.844325,-0.28342 -1.320708,-1.05452 -1.383927,-2.24157 -0.02081,-0.39084 0.01861,-0.87026 0.0988,-1.20716 0.181032,-0.76057 0.613271,-1.27505 1.264959,-1.5049 0.436888,-0.15408 1.013056,-0.18371 1.478027,-0.0766 0.419788,0.0968 0.803134,0.30695 1.049204,0.57535 0.185944,0.20281 0.354775,0.49819 0.447642,0.7837 0.02923,0.0899 0.05848,0.15527 0.0699,0.15527 0.03111,0 0.500343,-0.12603 0.513511,-0.13779 0.01911,-0.0172 -0.105496,-0.36053 -0.202985,-0.5599 -0.252595,-0.51656 -0.629009,-0.90285 -1.119778,-1.14934 -0.416136,-0.20899 -0.970689,-0.31148 -1.51365,-0.29104 z m 0.522922,3.26657 c 0.205595,0.005 0.395615,0.0236 0.44025,0.0511 0.01637,0.0104 0.01635,0.0367 0,0.14787 -0.06277,0.4268 -0.229627,0.66869 -0.53166,0.76959 -0.111493,0.0373 -0.311991,0.0518 -0.441593,0.0316 -0.319843,-0.0498 -0.511963,-0.22529 -0.512839,-0.46781 -9.29e-4,-0.25766 0.174136,-0.4307 0.512839,-0.50612 0.106654,-0.0237 0.327409,-0.0315 0.533003,-0.0263 z" />
  </g>
</svg>
